<svg width="368" height="298" viewBox="0 0 368 298" fill="none" xmlns="http://www.w3.org/2000/svg">
<path d="M47.0005 149.416C48.7294 226.78 110.501 287.854 187.167 289.583C188.995 289.616 190.458 288.12 190.458 286.325V277.348C262.902 277.348 321.648 218.602 321.648 146.158C321.648 73.6814 262.902 14.9352 190.458 14.9684V5.9587C190.458 4.13016 188.962 2.66732 187.167 2.70057C150.031 3.53172 116.386 18.4926 91.3511 42.3634C90.0545 43.6267 90.0545 45.7213 91.3178 46.9846L97.7011 53.4011C73.9633 77.139 59.3017 109.92 59.2684 146.158H50.2587C48.4634 146.125 46.9673 147.621 47.0005 149.416Z" fill="#FF642D" stroke="white" stroke-width="2" stroke-miterlimit="10" stroke-linecap="round" stroke-linejoin="round"/>
<path d="M89.2233 139.11C91.3179 136.883 94.576 141.77 97.4352 144.396C100.228 146.956 104.284 149.982 103.12 152.342C100.959 156.731 95.2409 152.342 92.5147 148.386C90.0877 144.862 87.8935 140.54 89.2233 139.11Z" fill="white"/>
<path d="M89.2233 139.11C91.3179 136.883 94.576 141.77 97.4352 144.396C100.228 146.956 104.284 149.982 103.12 152.342C100.959 156.731 95.2409 152.342 92.5147 148.386C90.0877 144.862 87.8935 140.54 89.2233 139.11Z" stroke="black" stroke-width="1.2" stroke-miterlimit="10" stroke-linecap="round" stroke-linejoin="round"/>
<path d="M95.3071 133.292C97.5346 131.197 100.46 136.284 103.153 139.11C105.78 141.836 109.636 145.128 108.34 147.388C105.913 151.611 100.46 146.89 98.0001 142.767C95.8058 139.11 93.9108 134.622 95.3071 133.292Z" fill="white"/>
<path d="M95.3071 133.292C97.5346 131.197 100.46 136.284 103.153 139.11C105.78 141.836 109.636 145.128 108.34 147.388C105.913 151.611 100.46 146.89 98.0001 142.767C95.8058 139.11 93.9108 134.622 95.3071 133.292Z" stroke="black" stroke-width="1.2" stroke-miterlimit="10" stroke-linecap="round" stroke-linejoin="round"/>
<path d="M105.68 130.1C108.34 128.371 109.836 133.059 111.664 135.719C113.46 138.312 116.286 141.471 114.424 143.432C110.999 147.089 107.043 142.534 105.746 138.711C104.616 135.32 103.984 131.231 105.68 130.1Z" fill="white"/>
<path d="M105.68 130.1C108.34 128.371 109.836 133.059 111.664 135.719C113.46 138.312 116.286 141.471 114.424 143.432C110.999 147.089 107.043 142.534 105.746 138.711C104.616 135.32 103.984 131.231 105.68 130.1Z" stroke="black" stroke-width="1.2" stroke-miterlimit="10" stroke-linecap="round" stroke-linejoin="round"/>
<path d="M191.821 127.773C178.623 127.474 160.138 158.892 162.365 164.411C164.593 169.963 176.827 175.049 176.827 175.049L191.821 127.773Z" fill="white" stroke="black" stroke-width="1.2" stroke-miterlimit="10" stroke-linecap="round" stroke-linejoin="round"/>
<path d="M170.477 165.807C169.812 160.521 170.644 151.511 177.592 142.235C184.441 133.093 186.136 135.453 187.167 148.153C188.198 160.853 179.587 173.055 179.587 173.055L170.477 165.807Z" fill="#FF642D"/>
<path d="M167.053 182.596C171.845 182.596 175.73 178.711 175.73 173.919C175.73 169.127 171.845 165.242 167.053 165.242C162.26 165.242 158.375 169.127 158.375 173.919C158.375 178.711 162.26 182.596 167.053 182.596Z" fill="white"/>
<path d="M170.311 165.308C172.538 174.019 162.864 175.249 162.864 175.249L166.188 185.455L175.098 179.006L177.725 167.802L170.311 165.308Z" fill="#FF642D"/>
<path d="M167.053 182.596C171.845 182.596 175.73 178.711 175.73 173.919C175.73 169.127 171.845 165.242 167.053 165.242C162.26 165.242 158.375 169.127 158.375 173.919C158.375 178.711 162.26 182.596 167.053 182.596Z" stroke="black" stroke-width="1.2" stroke-miterlimit="10" stroke-linecap="round" stroke-linejoin="round"/>
<path d="M126.061 164.909C126.127 159.557 129.784 153.439 137.963 154.104C146.175 154.769 160.038 158.759 164.659 164.876C170.045 172.024 170.079 179.272 166.089 183.128C161.767 187.317 157.478 187.517 148.402 185.821C139.326 184.192 125.795 184.757 126.061 164.909Z" fill="white"/>
<mask id="mask0" mask-type="alpha" maskUnits="userSpaceOnUse" x="126" y="154" width="43" height="33">
<path d="M126.061 164.909C126.127 159.557 129.784 153.439 137.963 154.104C146.175 154.769 160.038 158.759 164.659 164.876C170.045 172.024 170.079 179.272 166.089 183.128C161.767 187.317 157.478 187.517 148.402 185.821C139.326 184.192 125.795 184.757 126.061 164.909Z" fill="white"/>
</mask>
<g mask="url(#mask0)">
<path d="M129.053 159.357C131.646 169.298 134.638 177.742 144.678 180.036C169.347 185.721 169.813 167.469 169.813 167.469C169.813 167.469 171.708 179.737 165.424 185.888C159.14 192.038 137.431 191.14 131.48 184.425C125.528 177.709 122.171 170.461 122.636 170.295C123.068 170.096 129.053 159.357 129.053 159.357Z" fill="#FF642D"/>
<path d="M126.526 158.326C129.784 155.866 137.298 158.493 136.367 167.303C135.436 176.113 125.761 178.573 122.869 173.919C119.976 169.264 126.526 158.326 126.526 158.326Z" fill="black" stroke="black" stroke-width="1.2" stroke-miterlimit="10" stroke-linecap="round" stroke-linejoin="round"/>
</g>
<path d="M126.061 164.909C126.127 159.557 129.784 153.439 137.963 154.104C146.175 154.769 160.038 158.759 164.659 164.876C170.045 172.024 170.079 179.272 166.089 183.128C161.767 187.317 157.478 187.517 148.402 185.821C139.326 184.192 125.795 184.757 126.061 164.909Z" stroke="black" stroke-width="1.2" stroke-miterlimit="10" stroke-linecap="round" stroke-linejoin="round"/>
<path d="M110.634 207.764L66.5161 201.813L108.539 194.565L149.532 199.319L110.634 207.764Z" fill="white" stroke="black" stroke-width="1.2" stroke-miterlimit="10" stroke-linecap="round" stroke-linejoin="round"/>
<path d="M110.634 207.764L111.366 266.742L151.66 252.48L149.532 199.319L110.634 207.764Z" fill="black" stroke="black" stroke-width="1.2" stroke-miterlimit="10" stroke-linecap="round" stroke-linejoin="round"/>
<path d="M66.5161 201.813V257.234L111.365 266.743L110.634 207.764L66.5161 201.813Z" fill="#FF642D" stroke="black" stroke-width="1.2" stroke-miterlimit="10" stroke-linecap="round" stroke-linejoin="round"/>
<path d="M91.9166 246.595C91.7504 247.194 91.5509 247.759 91.2517 248.224C90.9857 248.69 90.5868 249.089 90.0881 249.321C89.5894 249.587 88.991 249.654 88.2928 249.554C87.3619 249.421 86.5972 249.056 86.0653 248.457C85.5333 247.859 85.1676 247.227 84.9682 246.562C84.7687 245.897 84.536 244.866 84.2035 243.47L79.5158 221.96L79.3828 244.501C79.3828 245.764 79.1168 246.629 78.5849 247.194C78.0529 247.726 77.388 247.958 76.5901 247.825C75.7257 247.692 75.0275 247.293 74.5288 246.595C74.0301 245.897 73.7642 244.933 73.7642 243.67L73.9304 217.837C73.9304 216.408 74.2961 215.51 74.961 215.111C75.6592 214.712 76.5901 214.612 77.7537 214.779L79.6488 215.045C80.7791 215.211 81.6103 215.444 82.109 215.743C82.6077 216.042 83.0066 216.507 83.2393 217.106C83.4721 217.704 83.7713 218.702 84.0705 220.065L88.326 238.583L92.8143 221.328C93.1467 220.065 93.4127 219.167 93.6787 218.635C93.9446 218.103 94.3104 217.738 94.8423 217.605C95.341 217.472 96.1722 217.472 97.3025 217.638L99.1976 217.904C100.361 218.07 101.292 218.469 101.957 219.067C102.655 219.666 102.988 220.663 102.954 222.093L102.788 247.925C102.788 249.188 102.522 250.086 101.99 250.618C101.458 251.15 100.793 251.383 99.9622 251.25C99.0978 251.117 98.4329 250.718 97.9342 250.02C97.4355 249.321 97.1695 248.357 97.1695 247.094L97.369 224.619L92.4153 244.7C92.2491 245.365 92.0829 245.997 91.9166 246.595Z" fill="black"/>
<path d="M301.9 229.606L268.886 218.502L286.174 197.058L301.202 208.628L301.9 229.606Z" fill="black" stroke="black" stroke-width="1.2" stroke-miterlimit="10" stroke-linecap="round" stroke-linejoin="round"/>
<path d="M295.854 234.561C299.193 224.004 295.427 213.399 287.443 210.875C279.46 208.35 270.282 214.862 266.944 225.419C263.606 235.976 267.371 246.581 275.355 249.105C283.338 251.63 292.516 245.118 295.854 234.561Z" fill="black" stroke="black" stroke-width="1.2" stroke-miterlimit="10" stroke-linecap="round" stroke-linejoin="round"/>
<path d="M299.501 235.551C302.839 224.994 299.073 214.389 291.09 211.865C283.106 209.341 273.928 215.852 270.59 226.409C267.252 236.967 271.018 247.571 279.001 250.096C286.985 252.62 296.163 246.108 299.501 235.551Z" fill="#FF642D" stroke="black" stroke-width="1.2" stroke-miterlimit="10" stroke-linecap="round" stroke-linejoin="round"/>
<path d="M296.519 232.914C299.32 224.055 296.155 215.155 289.449 213.034C282.744 210.914 275.037 216.377 272.236 225.236C269.435 234.094 272.6 242.995 279.305 245.115C286.011 247.235 293.717 241.773 296.519 232.914Z" fill="black" stroke="black" stroke-width="1.2" stroke-miterlimit="10" stroke-linecap="round" stroke-linejoin="round"/>
<path d="M305.291 186.951C303.396 157.296 295.184 135.12 274.272 114.109C253.36 93.0972 228.991 98.2171 201.297 114.574C177.26 128.77 171.807 167.436 172.306 191.007C173.004 222.458 177.559 236.089 177.559 236.089C177.559 236.089 186.967 246.562 205.22 252.779C225.832 259.794 250.701 261.224 274.871 243.37C270.914 238.749 269.618 231.069 272.045 223.423C275.369 212.85 284.579 206.334 292.558 208.861C299.839 211.155 303.595 220.198 301.7 229.773C301.867 229.673 301.933 229.606 301.933 229.606C301.933 229.606 307.153 216.64 305.291 186.951Z" fill="white"/>
<mask id="mask1" mask-type="alpha" maskUnits="userSpaceOnUse" x="172" y="100" width="134" height="158">
<path d="M305.291 186.951C303.396 157.296 295.184 135.12 274.272 114.109C253.36 93.0972 228.991 98.2171 201.297 114.574C177.26 128.77 171.807 167.436 172.306 191.007C173.004 222.458 177.559 236.089 177.559 236.089C177.559 236.089 186.967 246.562 205.22 252.779C225.832 259.794 250.701 261.224 274.871 243.37C270.914 238.749 269.618 231.069 272.045 223.423C275.369 212.85 284.579 206.334 292.558 208.861C299.839 211.155 303.595 220.198 301.7 229.773C301.867 229.673 301.933 229.606 301.933 229.606C301.933 229.606 307.153 216.64 305.291 186.951Z" fill="white"/>
</mask>
<g mask="url(#mask1)">
<path d="M234.543 120.525C280.655 128.737 284.678 174.118 269.584 202.577C235.44 266.942 180.119 229.773 170.976 196.859C167.651 184.923 164.194 238.616 199.867 257.5C258.181 288.386 322.18 228.443 321.316 228.41C320.451 228.376 315.331 147.754 293.056 124.382C270.781 101.01 267.091 107.194 267.091 107.194L234.543 120.525Z" fill="#FF642D"/>
</g>
<path d="M276.2 94.0281C267.556 121.789 235.54 131.896 210.007 127.075C169.945 119.495 202.526 101.409 203.092 101.375C232.481 99.6799 276.2 94.0281 276.2 94.0281Z" fill="black" stroke="black" stroke-width="1.2" stroke-miterlimit="10" stroke-linecap="round" stroke-linejoin="round"/>
<path d="M305.291 186.951C303.396 157.296 295.184 135.12 274.272 114.109C253.36 93.0972 228.991 98.2171 201.297 114.574C177.26 128.77 171.807 167.436 172.306 191.007C173.004 222.458 177.559 236.089 177.559 236.089C177.559 236.089 186.967 246.562 205.22 252.779C225.832 259.794 250.701 261.224 274.871 243.37C270.914 238.749 269.618 231.069 272.045 223.423C275.369 212.85 284.579 206.334 292.558 208.861C299.839 211.155 303.595 220.198 301.7 229.773C301.867 229.673 301.933 229.606 301.933 229.606C301.933 229.606 307.153 216.64 305.291 186.951Z" stroke="black" stroke-width="1.2" stroke-miterlimit="10" stroke-linecap="round" stroke-linejoin="round"/>
<path d="M228.492 48.1482C228.492 48.1482 232.98 40.2356 239.563 42.5296C246.145 44.7904 244.417 51.6724 244.417 51.6724L228.492 48.1482Z" fill="white"/>
<path d="M236.67 38.9058C240.926 43.0948 241.524 46.2864 236.571 47.6495C234.709 48.1482 245.913 53.1019 246.012 51.6723C246.079 50.2427 246.711 44.3582 243.851 42.1971C240.959 39.9696 236.67 38.9058 236.67 38.9058Z" fill="#FF642D"/>
<path d="M228.492 48.1482C228.492 48.1482 232.98 40.2356 239.563 42.5296C246.145 44.7904 244.417 51.6724 244.417 51.6724L228.492 48.1482Z" stroke="black" stroke-width="1.2" stroke-miterlimit="10" stroke-linecap="round" stroke-linejoin="round"/>
<path d="M176.727 227.246L120.508 222.259L162.365 212.884L221.078 217.472L176.727 227.246Z" fill="black" stroke="black" stroke-width="1.2" stroke-miterlimit="10" stroke-linecap="round" stroke-linejoin="round"/>
<path d="M176.728 227.246L178.19 295.7L221.976 274.156L221.078 217.471L176.728 227.246Z" fill="#FF642D" stroke="black" stroke-width="1.2" stroke-miterlimit="10" stroke-linecap="round" stroke-linejoin="round"/>
<path d="M120.508 222.259V284.662L178.19 295.7L176.727 227.246L120.508 222.259Z" fill="white" stroke="black" stroke-width="1.2" stroke-miterlimit="10" stroke-linecap="round" stroke-linejoin="round"/>
<path d="M196.875 266.211L191.755 241.741L191.888 271.33C191.888 272.96 191.622 274.356 191.123 275.486C190.591 276.617 189.893 277.415 189.029 277.913C188.165 278.412 187.466 278.379 186.934 277.88C186.402 277.381 186.103 276.284 186.103 274.655L185.937 240.711C185.937 238.849 186.269 237.386 186.968 236.322C187.666 235.258 188.63 234.394 189.827 233.696L191.788 232.565C192.952 231.9 193.816 231.568 194.348 231.535C194.88 231.535 195.279 231.834 195.545 232.432C195.811 233.064 196.11 234.128 196.443 235.657L201.064 256.37L203.99 230.205C204.322 228.31 206.118 227.179 206.383 226.282C206.649 225.384 207.015 224.619 207.547 224.021C208.079 223.423 208.943 222.791 210.107 222.126L212.069 220.996C213.265 220.297 214.23 220.098 214.961 220.331C215.659 220.597 216.025 221.627 216.058 223.522L216.224 257.467C216.224 259.096 215.958 260.492 215.46 261.623C214.928 262.753 214.23 263.551 213.332 264.083C212.501 264.548 211.803 264.548 211.271 264.016C210.739 263.518 210.44 262.42 210.44 260.791L210.307 231.202L205.419 261.357C205.087 263.318 204.854 264.781 204.655 265.712C204.455 266.643 204.089 267.64 203.524 268.637C202.959 269.635 202.194 270.4 201.23 270.965C200.499 271.397 199.867 271.53 199.369 271.364C198.87 271.231 198.471 270.865 198.172 270.366C197.872 269.834 197.673 269.203 197.507 268.471C197.241 267.773 197.075 267.008 196.875 266.211Z" fill="black"/>
<path d="M133.441 266.975L142.351 254.94L135.236 242.572C134.571 241.376 134.072 240.345 133.74 239.514C133.407 238.683 133.241 237.885 133.274 237.12C133.274 236.355 133.64 235.724 134.305 235.192C134.97 234.66 135.801 234.46 136.732 234.56C137.829 234.693 138.66 235.125 139.259 235.823C139.857 236.555 140.688 237.885 141.719 239.78L147.371 250.086L153.754 241.11C154.286 240.345 154.718 239.713 155.117 239.181C155.483 238.649 155.849 238.217 156.181 237.851C156.514 237.519 156.912 237.253 157.311 237.12C157.744 236.987 158.209 236.921 158.741 236.987C159.738 237.087 160.536 237.486 161.135 238.184C161.733 238.849 162.032 239.614 162.032 240.445C161.999 241.642 161.301 243.237 159.905 245.166L152.059 256.037L160.038 269.967C160.769 271.198 161.268 272.195 161.6 272.993C161.933 273.791 162.066 274.522 162.066 275.187C162.066 275.819 161.899 276.384 161.6 276.883C161.301 277.381 160.869 277.747 160.304 277.98C159.738 278.212 159.14 278.312 158.442 278.246C157.71 278.146 157.079 277.947 156.58 277.548C156.081 277.182 155.682 276.75 155.35 276.218C155.051 275.719 154.452 274.722 153.621 273.292L147.005 261.49L139.591 272.029C139.026 272.86 138.594 273.458 138.361 273.791C138.128 274.123 137.829 274.456 137.497 274.755C137.164 275.054 136.765 275.287 136.3 275.42C135.834 275.553 135.302 275.619 134.671 275.553C133.707 275.453 132.942 275.054 132.31 274.389C131.712 273.724 131.413 272.827 131.413 271.663C131.413 270.333 132.111 268.771 133.441 266.975Z" fill="black"/>
<path d="M179.553 110.984C180.019 113.411 181.515 115.472 183.642 116.735C191.189 121.124 210.306 127.673 235.872 122.188C258.447 117.367 269.651 108.291 274.338 103.337C276.2 101.342 277.098 98.6494 276.765 95.9232C275.236 83.5556 267.423 47.3836 228.159 47.0511C178.589 46.6522 176.993 98.0509 179.553 110.984Z" fill="white"/>
<mask id="mask2" mask-type="alpha" maskUnits="userSpaceOnUse" x="178" y="47" width="99" height="78">
<path d="M179.553 110.984C180.019 113.411 181.515 115.472 183.642 116.735C191.189 121.124 210.306 127.673 235.872 122.188C258.447 117.367 269.651 108.291 274.338 103.337C276.2 101.342 277.098 98.6494 276.765 95.9232C275.236 83.5556 267.423 47.3836 228.159 47.0511C178.589 46.6522 176.993 98.0509 179.553 110.984Z" fill="white"/>
</mask>
<g mask="url(#mask2)">
<path d="M210.373 48.5139C233.346 42.2304 256.219 53.0687 263.367 80.2641C272.344 114.541 222.241 126.975 222.241 126.975C222.241 126.975 271.479 116.17 276.832 106.894C282.185 97.6187 279.891 74.6455 269.883 63.774C259.876 52.8692 228.06 41.0335 220.978 43.4937C213.897 45.8875 210.373 48.5139 210.373 48.5139Z" fill="#FF642D"/>
</g>
<path d="M179.553 110.984C180.019 113.411 181.515 115.472 183.642 116.735C191.189 121.124 210.306 127.673 235.872 122.188C258.447 117.367 269.651 108.291 274.338 103.337C276.2 101.342 277.098 98.6494 276.765 95.9232C275.236 83.5556 267.423 47.3836 228.159 47.0511C178.589 46.6522 176.993 98.0509 179.553 110.984Z" stroke="black" stroke-width="1.2" stroke-miterlimit="10" stroke-linecap="round" stroke-linejoin="round"/>
<path d="M195.944 163.047C199.435 158.592 203.624 159.158 203.624 159.158C203.624 159.158 203.192 155.833 198.604 155.235C191.589 154.337 187.3 157.562 187.3 157.562C187.3 157.562 190.126 151.744 197.706 148.884C202.294 147.156 208.012 148.552 208.012 148.552C208.012 148.552 208.777 146.69 206.117 144.961C202.926 142.9 199.834 143.598 199.834 143.598C199.834 143.598 205.12 140.207 213.93 140.972C220.812 141.57 228.126 145.094 231.185 152.841C235.341 163.413 224.17 174.218 210.672 166.837C200.632 161.385 195.944 163.047 195.944 163.047Z" fill="#FF642D" stroke="#FF642D" stroke-width="1.2" stroke-miterlimit="10" stroke-linecap="round" stroke-linejoin="round"/>
<path d="M213.196 111.026C215.692 110.717 217.33 107.349 216.853 103.504C216.377 99.6595 213.967 96.7935 211.47 97.1029C208.974 97.4123 207.337 100.78 207.813 104.625C208.29 108.47 210.7 111.336 213.196 111.026Z" fill="black" stroke="black" stroke-width="1.2" stroke-miterlimit="10" stroke-linecap="round" stroke-linejoin="round"/>
<path d="M188.192 108.04C190.488 107.755 191.994 104.659 191.556 101.124C191.118 97.5888 188.901 94.9538 186.605 95.2384C184.309 95.5229 182.803 98.6193 183.242 102.154C183.68 105.689 185.896 108.324 188.192 108.04Z" fill="black" stroke="black" stroke-width="1.2" stroke-miterlimit="10" stroke-linecap="round" stroke-linejoin="round"/>
<path d="M275.635 181.665C264.631 181.998 252.729 173.653 251.931 151.91C251.199 132.128 256.219 125.679 262.869 124.515C269.518 123.351 284.811 133.325 286.607 151.71C288.402 170.096 283.415 181.433 275.635 181.665Z" fill="white"/>
<path d="M255.588 128.072C271.147 126.742 278.96 139.708 279.891 155.068C280.755 169.131 273.807 174.418 269.053 174.218C264.298 174.019 275.336 181.964 278.295 183.095C281.254 184.225 296.348 151.278 285.643 131.862C274.937 112.447 255.588 128.072 255.588 128.072Z" fill="#FF642D"/>
<path d="M261.373 176.446C265.994 167.835 277.264 169.863 279.193 178.939C280.655 185.755 268.454 188.248 268.454 188.248L261.373 176.446Z" fill="black" stroke="black" stroke-width="1.2" stroke-miterlimit="10" stroke-linecap="round" stroke-linejoin="round"/>
<path d="M275.635 181.665C264.631 181.998 252.729 173.653 251.931 151.91C251.199 132.128 256.219 125.679 262.869 124.515C269.518 123.351 284.811 133.325 286.607 151.71C288.402 170.096 283.415 181.433 275.635 181.665Z" stroke="black" stroke-width="1.2" stroke-miterlimit="10" stroke-linecap="round" stroke-linejoin="round"/>
<path d="M268.72 192.271C274.026 192.271 278.328 187.969 278.328 182.663C278.328 177.356 274.026 173.055 268.72 173.055C263.414 173.055 259.112 177.356 259.112 182.663C259.112 187.969 263.414 192.271 268.72 192.271Z" fill="white"/>
<mask id="mask3" mask-type="alpha" maskUnits="userSpaceOnUse" x="259" y="173" width="20" height="20">
<path d="M268.72 192.271C274.026 192.271 278.328 187.969 278.328 182.663C278.328 177.356 274.026 173.055 268.72 173.055C263.414 173.055 259.112 177.356 259.112 182.663C259.112 187.969 263.414 192.271 268.72 192.271Z" fill="white"/>
</mask>
<g mask="url(#mask3)">
<path d="M268.62 172.024C275.203 179.504 266.259 185.555 266.259 185.555L274.671 193.966L280.223 183.161L277.197 170.794L268.62 172.024Z" fill="#FF642D"/>
</g>
<path d="M268.72 192.271C274.026 192.271 278.328 187.969 278.328 182.663C278.328 177.356 274.026 173.055 268.72 173.055C263.414 173.055 259.112 177.356 259.112 182.663C259.112 187.969 263.414 192.271 268.72 192.271Z" stroke="black" stroke-width="1.2" stroke-miterlimit="10" stroke-linecap="round" stroke-linejoin="round"/>
<path d="M232.681 211.986C228.659 207.797 226.697 200.183 233.28 194.133C239.863 188.082 253.128 180.069 261.24 181.1C270.682 182.297 276.201 187.849 276.201 194.033C276.201 200.715 273.175 204.306 265.163 210.257C257.151 216.208 247.576 227.479 232.681 211.986Z" fill="white"/>
<mask id="mask4" mask-type="alpha" maskUnits="userSpaceOnUse" x="228" y="181" width="49" height="39">
<path d="M232.681 211.986C228.659 207.797 226.697 200.183 233.28 194.133C239.863 188.082 253.128 180.069 261.24 181.1C270.682 182.297 276.201 187.849 276.201 194.033C276.201 200.715 273.175 204.306 265.163 210.257C257.151 216.208 247.576 227.479 232.681 211.986Z" fill="white"/>
</mask>
<g mask="url(#mask4)">
<path d="M230.687 205.27C240.162 210.855 248.806 214.978 257.982 208.761C280.523 193.434 266.991 178.972 266.991 178.972C266.991 178.972 277.73 186.918 277.763 196.692C277.763 206.467 261.04 223.123 251.532 222.724C242.024 222.325 234.044 219.366 234.244 218.868C234.41 218.369 230.687 205.27 230.687 205.27Z" fill="#FF642D"/>
<path d="M227.993 206.5C228.558 201.979 236.072 197.989 242.09 205.536C248.107 213.083 242.821 222.691 237.136 221.428C231.484 220.198 227.993 206.5 227.993 206.5Z" fill="black" stroke="black" stroke-width="1.2" stroke-miterlimit="10" stroke-linecap="round" stroke-linejoin="round"/>
</g>
<path d="M232.681 211.986C228.659 207.797 226.697 200.183 233.28 194.133C239.863 188.082 253.128 180.069 261.24 181.1C270.682 182.297 276.201 187.849 276.201 194.033C276.201 200.715 273.175 204.306 265.163 210.257C257.151 216.208 247.576 227.479 232.681 211.986Z" stroke="black" stroke-width="1.2" stroke-miterlimit="10" stroke-linecap="round" stroke-linejoin="round"/>
<path d="M232.814 220.098C238.083 220.098 242.355 215.826 242.355 210.556C242.355 205.287 238.083 201.015 232.814 201.015C227.544 201.015 223.272 205.287 223.272 210.556C223.272 215.826 227.544 220.098 232.814 220.098Z" fill="white"/>
<mask id="mask5" mask-type="alpha" maskUnits="userSpaceOnUse" x="223" y="201" width="20" height="20">
<path d="M232.814 220.098C238.083 220.098 242.355 215.826 242.355 210.556C242.355 205.287 238.083 201.015 232.814 201.015C227.544 201.015 223.272 205.287 223.272 210.556C223.272 215.826 227.544 220.098 232.814 220.098Z" fill="white"/>
</mask>
<g mask="url(#mask5)">
<path d="M233.213 201.015C238.034 209.625 228.459 212.95 228.459 212.95L237.402 221.76C237.402 221.76 242.655 220.165 242.356 210.989C242.023 201.746 233.213 201.015 233.213 201.015Z" fill="#FF642D"/>
</g>
<path d="M232.814 220.098C238.083 220.098 242.355 215.826 242.355 210.556C242.355 205.287 238.083 201.015 232.814 201.015C227.544 201.015 223.272 205.287 223.272 210.556C223.272 215.826 227.544 220.098 232.814 220.098Z" stroke="black" stroke-width="1.2" stroke-miterlimit="10" stroke-linecap="round" stroke-linejoin="round"/>
<path d="M126.06 174.285C131.054 174.285 135.103 170.236 135.103 165.242C135.103 160.247 131.054 156.199 126.06 156.199C121.066 156.199 117.017 160.247 117.017 165.242C117.017 170.236 121.066 174.285 126.06 174.285Z" fill="white"/>
<mask id="mask6" mask-type="alpha" maskUnits="userSpaceOnUse" x="117" y="156" width="19" height="19">
<path d="M126.06 174.285C131.054 174.285 135.103 170.236 135.103 165.242C135.103 160.247 131.054 156.199 126.06 156.199C121.066 156.199 117.017 160.247 117.017 165.242C117.017 170.236 121.066 174.285 126.06 174.285Z" fill="white"/>
</mask>
<g mask="url(#mask6)">
<path d="M135.502 162.549C129.152 169.431 123.334 161.784 123.334 161.784L118.048 172.456C118.048 172.456 121.04 176.712 129.252 173.719C137.43 170.727 135.502 162.549 135.502 162.549Z" fill="#FF642D"/>
</g>
<path d="M126.06 174.285C131.054 174.285 135.103 170.236 135.103 165.242C135.103 160.247 131.054 156.199 126.06 156.199C121.066 156.199 117.017 160.247 117.017 165.242C117.017 170.236 121.066 174.285 126.06 174.285Z" stroke="black" stroke-width="1.2" stroke-miterlimit="10" stroke-linecap="round" stroke-linejoin="round"/>
<path d="M217.221 204.14C222.774 202.112 230.62 206.899 236.305 214.612C241.99 222.325 239.33 229.706 235.44 234.959C228.625 244.168 213.764 246.196 205.884 238.117C198.005 230.039 197.307 225.384 199.634 218.901C201.928 212.385 211.835 206.101 217.221 204.14Z" fill="white"/>
<mask id="mask7" mask-type="alpha" maskUnits="userSpaceOnUse" x="198" y="203" width="42" height="41">
<path d="M217.221 204.14C222.774 202.112 230.62 206.899 236.305 214.612C241.99 222.325 239.33 229.706 235.44 234.959C228.625 244.168 213.764 246.196 205.884 238.117C198.005 230.039 197.307 225.384 199.634 218.901C201.928 212.385 211.835 206.101 217.221 204.14Z" fill="white"/>
</mask>
<g mask="url(#mask7)">
<path d="M198.371 220.63C205.22 233.164 217.321 237.585 226.896 232.399C241.757 224.387 233.878 208.462 233.878 208.462C233.878 208.462 243.121 224.586 241.791 231.668C240.461 238.749 222.741 249.654 209.509 244.135C196.277 238.616 198.371 220.63 198.371 220.63Z" fill="#FF642D"/>
</g>
<path d="M217.221 204.14C222.774 202.112 230.62 206.899 236.305 214.612C241.99 222.325 239.33 229.706 235.44 234.959C228.625 244.168 213.764 246.196 205.884 238.117C198.005 230.039 197.307 225.384 199.634 218.901C201.928 212.385 211.835 206.101 217.221 204.14Z" stroke="black" stroke-width="1.2" stroke-miterlimit="10" stroke-linecap="round" stroke-linejoin="round"/>
<path d="M130.183 148.552C133.641 151.877 132.776 159.091 128.953 165.774C125.163 172.456 118.613 173.686 113.294 172.656C104.018 170.86 97.4353 160.221 100.727 151.843C104.051 143.432 107.276 141.404 112.961 140.872C118.713 140.373 126.858 145.36 130.183 148.552Z" fill="white"/>
<mask id="mask8" mask-type="alpha" maskUnits="userSpaceOnUse" x="99" y="140" width="34" height="33">
<path d="M130.183 148.552C133.641 151.877 132.776 159.091 128.953 165.774C125.163 172.456 118.613 173.686 113.294 172.656C104.018 170.86 97.4353 160.221 100.727 151.843C104.051 143.432 107.276 141.404 112.961 140.872C118.713 140.373 126.858 145.36 130.183 148.552Z" fill="white"/>
</mask>
<g mask="url(#mask8)">
<path d="M101.325 163.347C110.102 171.326 118.081 172.323 125.295 166.438C136.499 157.329 130.814 145.294 130.814 145.294C130.814 145.294 141.32 156.997 141.719 162.582C142.118 168.167 129.052 180.036 116.252 178.64C103.486 177.244 101.325 163.347 101.325 163.347Z" fill="#FF642D"/>
</g>
<path d="M130.183 148.552C133.641 151.877 132.776 159.091 128.953 165.774C125.163 172.456 118.613 173.686 113.294 172.656C104.018 170.86 97.4353 160.221 100.727 151.843C104.051 143.432 107.276 141.404 112.961 140.872C118.713 140.373 126.858 145.36 130.183 148.552Z" stroke="black" stroke-width="1.2" stroke-miterlimit="10" stroke-linecap="round" stroke-linejoin="round"/>
<path d="M193.816 240.478C198.005 235.059 203.923 230.67 203.69 225.384C203.391 218.835 194.847 221.893 190.791 229.473C186.768 237.02 189.295 246.329 193.816 240.478Z" fill="white"/>
<mask id="mask9" mask-type="alpha" maskUnits="userSpaceOnUse" x="188" y="221" width="16" height="22">
<path d="M193.816 240.478C198.005 235.059 203.923 230.67 203.69 225.384C203.391 218.835 194.847 221.893 190.791 229.473C186.768 237.02 189.295 246.329 193.816 240.478Z" fill="white"/>
</mask>
<g mask="url(#mask9)">
<path d="M187 239.281C193.816 240.445 202.56 225.351 202.959 222.891C203.324 220.464 204.987 221.96 204.987 221.96C204.987 221.96 203.457 229.64 203.491 230.238C203.524 230.87 191.389 246.429 191.389 246.429L187 239.281Z" fill="#FF642D"/>
</g>
<path d="M193.816 240.478C198.005 235.059 203.923 230.67 203.69 225.384C203.391 218.835 194.847 221.893 190.791 229.473C186.768 237.02 189.295 246.329 193.816 240.478Z" stroke="black" stroke-width="1.2" stroke-miterlimit="10" stroke-linecap="round" stroke-linejoin="round"/>
<path d="M204.189 254.641C208.046 255.771 208.511 248.025 210.007 243.138C211.47 238.383 214.096 232.2 211.171 230.271C205.785 226.714 202.194 235.557 201.729 241.841C201.297 247.493 201.696 253.909 204.189 254.641Z" fill="white"/>
<mask id="mask10" mask-type="alpha" maskUnits="userSpaceOnUse" x="201" y="229" width="12" height="26">
<path d="M204.189 254.641C208.046 255.771 208.511 248.025 210.007 243.138C211.47 238.383 214.096 232.2 211.171 230.271C205.785 226.714 202.194 235.557 201.729 241.841C201.297 247.493 201.696 253.909 204.189 254.641Z" fill="white"/>
</mask>
<g mask="url(#mask10)">
<path d="M199.734 250.186C207.979 251.682 212.5 232.765 208.843 225.584C207.48 222.924 214.296 226.614 214.196 230.837C214.096 235.059 212.434 253.045 208.478 256.968C204.488 260.924 199.734 250.186 199.734 250.186Z" fill="#FF642D"/>
</g>
<path d="M204.189 254.641C208.046 255.771 208.511 248.025 210.007 243.138C211.47 238.383 214.096 232.2 211.171 230.271C205.785 226.714 202.194 235.557 201.729 241.841C201.297 247.493 201.696 253.909 204.189 254.641Z" stroke="black" stroke-width="1.2" stroke-miterlimit="10" stroke-linecap="round" stroke-linejoin="round"/>
<path d="M217.721 258.231C213.498 257.367 211.271 235.79 218.286 235.026C223.306 234.46 223.672 241.642 222.242 248.357C221.045 253.976 221.212 258.963 217.721 258.231Z" fill="white"/>
<mask id="mask11" mask-type="alpha" maskUnits="userSpaceOnUse" x="213" y="234" width="10" height="25">
<path d="M217.721 258.231C213.498 257.367 211.271 235.79 218.286 235.026C223.306 234.46 223.672 241.642 222.242 248.357C221.045 253.976 221.212 258.963 217.721 258.231Z" fill="white"/>
</mask>
<g mask="url(#mask11)">
<path d="M214.263 255.14C221.411 253.012 221.478 239.913 217.92 230.837C215.859 225.65 228.26 245.997 223.871 254.275C219.45 262.587 214.263 255.14 214.263 255.14Z" fill="#FF642D"/>
</g>
<path d="M217.721 258.231C213.498 257.367 211.271 235.79 218.286 235.026C223.306 234.46 223.672 241.642 222.242 248.357C221.045 253.976 221.212 258.963 217.721 258.231Z" stroke="black" stroke-width="1.2" stroke-miterlimit="10" stroke-linecap="round" stroke-linejoin="round"/>
<path d="M229.456 234.327C220.114 233.962 230.287 255.372 233.845 252.38C236.937 249.787 234.277 234.527 229.456 234.327Z" fill="white"/>
<mask id="mask12" mask-type="alpha" maskUnits="userSpaceOnUse" x="225" y="234" width="11" height="19">
<path d="M229.456 234.327C220.114 233.962 230.287 255.372 233.845 252.38C236.937 249.787 234.277 234.527 229.456 234.327Z" fill="white"/>
</mask>
<g mask="url(#mask12)">
<path d="M226.83 231.368C232.781 237.12 231.65 253.244 231.019 254.641C230.387 256.037 239.197 250.419 236.737 241.974C234.31 233.529 226.83 231.368 226.83 231.368Z" fill="#FF642D"/>
</g>
<path d="M229.456 234.327C220.114 233.962 230.287 255.372 233.845 252.38C236.937 249.787 234.277 234.527 229.456 234.327Z" stroke="black" stroke-width="1.2" stroke-miterlimit="10" stroke-linecap="round" stroke-linejoin="round"/>
<path d="M111.332 103.869L89.5889 92.6317L112.695 96.6545L133.009 106.695L111.332 103.869Z" fill="#FF642D" stroke="black" stroke-width="1.2" stroke-miterlimit="10" stroke-linecap="round" stroke-linejoin="round"/>
<path d="M111.332 103.869L100.793 134.522L124.298 134.588L133.009 106.695L111.332 103.869Z" fill="#FF642D" stroke="black" stroke-width="1.2" stroke-miterlimit="10" stroke-linecap="round" stroke-linejoin="round"/>
<path d="M89.589 92.6317L79.3491 121.323L100.793 134.522L111.332 103.869L89.589 92.6317Z" fill="white" stroke="black" stroke-width="1.2" stroke-miterlimit="10" stroke-linecap="round" stroke-linejoin="round"/>
<path d="M94.4763 120.492C94.2768 120.791 94.0773 121.024 93.8446 121.223C93.6119 121.423 93.3459 121.556 93.0467 121.589C92.7475 121.622 92.415 121.556 92.0825 121.39C91.6171 121.157 91.3179 120.825 91.1516 120.426C90.9854 120.027 90.9189 119.628 90.9522 119.262C90.9854 118.896 91.0186 118.298 91.1184 117.533L92.6477 105.531L88.4254 117.167C88.1927 117.799 87.8935 118.231 87.5278 118.398C87.1621 118.597 86.7631 118.564 86.3642 118.364C85.932 118.132 85.666 117.799 85.533 117.334C85.4 116.868 85.4333 116.336 85.6992 115.671L90.5532 102.34C90.8192 101.608 91.1849 101.209 91.5838 101.109C92.016 101.043 92.5147 101.143 93.0799 101.442L94.0108 101.941C94.576 102.24 94.9417 102.506 95.1744 102.772C95.3739 103.005 95.5069 103.337 95.5069 103.703C95.5069 104.068 95.4736 104.634 95.3739 105.398L94.1438 115.771L99.6627 107.692C100.062 107.094 100.394 106.695 100.594 106.462C100.826 106.229 101.092 106.13 101.391 106.13C101.691 106.163 102.123 106.296 102.655 106.595L103.586 107.094C104.151 107.393 104.55 107.759 104.816 108.191C105.049 108.623 105.049 109.222 104.783 109.953L99.8622 123.218C99.6294 123.883 99.3302 124.282 98.9645 124.482C98.5988 124.648 98.1998 124.648 97.8009 124.448C97.3687 124.216 97.1027 123.883 96.9697 123.418C96.8367 122.952 96.87 122.42 97.136 121.755L101.358 110.119L95.0747 119.594C94.8752 119.927 94.6757 120.226 94.4763 120.492Z" fill="black"/>
<path d="M118.946 132.826C115.488 134.788 119.178 152.375 125.495 150.879C130.017 149.815 128.454 144.064 125.462 139.21C122.969 135.187 121.805 131.231 118.946 132.826Z" fill="white"/>
<mask id="mask13" mask-type="alpha" maskUnits="userSpaceOnUse" x="117" y="132" width="12" height="19">
<path d="M118.946 132.826C115.488 134.788 119.178 152.375 125.495 150.879C130.017 149.815 128.454 144.064 125.462 139.21C122.969 135.187 121.805 131.231 118.946 132.826Z" fill="white"/>
</mask>
<g mask="url(#mask13)">
<path d="M121.173 131.064C128.454 142.202 127.722 145.992 124.099 151.777C121.771 155.467 136.699 145.826 125.927 132.261C120.84 125.845 121.173 131.064 121.173 131.064Z" fill="#FF642D"/>
</g>
<path d="M118.946 132.826C115.488 134.788 119.178 152.375 125.495 150.879C130.017 149.815 128.454 144.064 125.462 139.21C122.969 135.187 121.805 131.231 118.946 132.826Z" stroke="black" stroke-width="1.2" stroke-miterlimit="10" stroke-linecap="round" stroke-linejoin="round"/>
<path d="M91.4839 151.444C96.0054 154.004 101.425 155.334 102.821 159.091C104.55 163.746 97.6678 164.111 92.6143 160.022C87.5609 155.899 86.5967 148.652 91.4839 151.444Z" fill="white"/>
<path d="M91.4839 151.444C96.0054 154.004 101.425 155.334 102.821 159.091C104.55 163.746 97.6678 164.111 92.6143 160.022C87.5609 155.899 86.5967 148.652 91.4839 151.444Z" stroke="black" stroke-width="1.2" stroke-miterlimit="10" stroke-linecap="round" stroke-linejoin="round"/>
</svg>
